<?xml version="1.0" encoding="UTF-8"?>
<svg version="1.0" viewBox="0 0 740 200" xml:space="preserve" xmlns="http://www.w3.org/2000/svg"><g transform="translate(-34.777 -129.8)"><g transform="matrix(.87464 0 0 .87464 14.731 23.409)"><g transform="matrix(.63786 0 0 .63786 36.486 2.1714)" fill-rule="evenodd"><path d="m339.97 309.09c-14.471-0.0239-26.481 2.9437-31.125 4.5625l-4.7812 25.812c-0.0116 0.0951 23.795-6.3486 34.281-5.9688 17.362 0.62381 18.959 6.6354 18.656 14.75 0.29595 0.47462-4.4793-7.3319-19.5-7.5938-18.95-0.32687-45.693 6.7095-45.656 35.312-0.51086 32.174 24.034 41.639 40.75 41.812 15.028-0.27364 22.078-5.6914 25.938-8.5938 5.0712-5.3024 10.873-10.634 16.406-17.031-5.2357 9.5128-9.7747 16.09-14.5 21.125v4.25l22.844-3.8438 0.15625-62.094c-0.23141-8.7884 5.0412-42.418-43.469-42.5zm-3.2812 54.062c9.4689 0.12995 20.328 4.7971 20.344 16.031 0.049 10.218-12.8 15.712-21.156 15.625-8.3598-0.0868-19.451-6.5698-19.5-16.531 0.16016-8.9044 10.46-15.354 20.312-15.125z"/><path d="m398.5 314.83-0.15505 102.83 26.612-5.1272 0.0449-58.302c6e-3 -8.6809 12.406-18.825 27.963-18.663 3.302-5.9741 9.5087-21.242 11.021-24.715-34.756-0.0833-35.199 9.9899-41.244 14.945-0.0631-9.4528-0.0213-15.127-0.0213-15.127l-24.22 4.1621z"/><path d="m548.27 328.33c-0.25696-0.12068-13.879-15.934-41.266-16.059-25.652-0.42638-54.426 9.519-54.886 52.533 0.22457 37.819 27.64 52.598 55.031 52.886 29.313 0.30451 40.977-18.329 41.676-18.791-3.4976-3.0321-16.598-16.013-16.598-16.013s-8.1824 11.651-24.058 11.799c-15.879 0.1512-29.682-12.273-29.878-29.609-0.20349-17.336 12.689-26.728 29.997-27.487 14.985-3e-3 23.63 9.6733 23.63 9.6733z"/><path d="m581.81 278.84-25.125 5.9062 0.1875 133.94 24.75-4.4688 0.28125-63.031c0.0529-6.6093 9.5613-16.759 25.438-16.438 15.18 0.15775 18.572 10.118 18.531 11.375l0.4375 72.969 24.406-4.3125 0.0937-77.375c0.1607-7.4454-16.308-23.17-42.781-23.281-12.581 0.0202-19.548 2.8682-23.094 4.9688-6.0666 4.6856-13 9.1754-19.812 14.906 6.2981-8.091 11.586-13.685 16.75-17.844l-0.0625-37.312z"/></g><g transform="matrix(.94434 0 .013363 .94434 78.346 -412.49)"><path d="m400.68 629.8 7.6817-1.9158-0.92851 91.208-7.7957 1.3243z" fill-rule="evenodd"/></g><path transform="matrix(1.1433 0 0 1.1433 22.92 121.64)" d="m105.81 16.625c-7.3969 18.135-11.858 29.998-20.094 47.594 5.0494 5.3523 11.247 11.585 21.312 18.625-10.821-4.4528-18.203-8.9234-23.719-13.562-10.54 21.993-27.053 53.321-60.562 113.53 26.338-15.205 46.754-24.579 65.781-28.156-0.81703-3.514-1.2816-7.3152-1.25-11.281l0.03125-0.84375c0.41792-16.874 9.1957-29.85 19.594-28.969 10.398 0.88104 18.48 15.282 18.062 32.156-0.0786 3.1751-0.43674 6.2296-1.0625 9.0625 18.821 3.6816 39.019 13.032 65 28.031-5.123-9.4318-9.6957-17.934-14.062-26.031-6.8784-5.3312-14.053-12.27-28.688-19.781 10.059 2.6138 17.261 5.6293 22.875 9-44.398-82.662-47.994-93.646-63.219-129.38z" fill-rule="evenodd"/><text transform="matrix(1.1433 0 0 1.1433 -16.842 -26.764)" x="583.49854" y="255.69315" fill="#000000" font-family="'Helvetica Neue'" font-size="104px" stroke-linecap="square" stroke-linejoin="bevel" text-align="center" text-anchor="middle" style="paint-order:fill markers stroke" xml:space="preserve"><tspan x="583.49854" y="255.69315" font-family="'Helvetica Neue'" font-size="104px" font-weight="300">Installer</tspan></text></g><g transform="matrix(.87464 0 0 .87464 -402.65 41.661)"><g transform="translate(9.1467 48.02)"><path d="m685.47 263.84v-5.3294h-1.9908v-0.71307h4.7895v0.71307h-1.9991v5.3294h-0.79962"/><path d="m689.1 263.84v-6.0425h1.2036l1.4303 4.2784c0.13189 0.39843 0.22806 0.69658 0.28852 0.89442 0.0687-0.21983 0.17586-0.5427 0.3215-0.96862l1.4467-4.2042h1.0758v6.0425h-0.77077v-5.0574l-1.7559 5.0574h-0.72131l-1.7476-5.144v5.144h-0.77077"/></g></g></g></svg>
